<svg xmlns="http://www.w3.org/2000/svg" viewBox="0 0 512 512">
  <g transform="translate(256,256)">
    <!-- ルーレット盤（4分割） -->
    <circle cx="0" cy="0" r="232" fill="#0061a4" stroke="#004a7c" stroke-width="10"/>
    <path d="M0 0 L0 -232 A232 232 0 0 1 232 0 Z" fill="#ffa726"/>
    <path d="M0 0 L232 0 A232 232 0 0 1 0 232 Z" fill="#ef5350"/>
    <path d="M0 0 L0 232 A232 232 0 0 1 -232 0 Z" fill="#66bb6a"/>
    <path d="M0 0 L-232 0 A232 232 0 0 1 0 -232 Z" fill="#ffee58"/>

    <!-- 寿司（右上） -->
    <g transform="translate(91,-91)">
      <ellipse cx="0" cy="12" rx="49" ry="29" fill="#fdfaf3" stroke="#d8cfa8" stroke-width="4.5"/>
      <path d="M-42 -5 q42 -37 84 0 q-7 26 -42 26 q-35 0 -42 -26 Z" fill="#f2795c"/>
      <rect x="-11.5" y="-9" width="23" height="44" fill="#2f3b2b"/>
    </g>

    <!-- ラーメン（右下） -->
    <g transform="translate(91,91)">
      <path d="M-58 -7 h116 a58 58 0 0 1 -116 0 Z" fill="#b71c1c"/>
      <ellipse cx="0" cy="-7" rx="58" ry="18.5" fill="#f6e3b4"/>
      <path d="M-35 -7 q14 -19 26 0 q14 -19 26 0 q14 -19 26 0" fill="none" stroke="#e8b23d" stroke-width="7.5" stroke-linecap="round"/>
      <circle cx="26" cy="18.5" r="16.5" fill="#fff8ec" stroke="#e0c98a" stroke-width="3.3"/>
      <circle cx="28" cy="18.5" r="6.5" fill="#f2b705"/>
    </g>

    <!-- おにぎり（左下） -->
    <g transform="translate(-91,91)">
      <path d="M0 -58 L49 40 Q0 63 -49 40 Z" fill="#fffdf6" stroke="#d8cfa8" stroke-width="4.5"/>
      <path d="M-49 16 L49 16 L40 42 Q0 58 -40 42 Z" fill="#2f3b2b"/>
    </g>

    <!-- カレーライス（左上） -->
    <g transform="translate(-91,-91)">
      <ellipse cx="0" cy="18.5" rx="56" ry="29" fill="#ffffff" stroke="#d0d7de" stroke-width="4.5"/>
      <ellipse cx="-18.5" cy="9" rx="25.5" ry="17.5" fill="#fdfaf3"/>
      <path d="M-2.5 -7 q32.5 -14 48.5 11.5 q9 18.5 -7 30 q-28 11.5 -51 -2.5 q-2.5 -18.5 9.5 -39.5 Z" fill="#8d5524"/>
    </g>

    <!-- 中心ハブ -->
    <circle cx="0" cy="0" r="44" fill="#ffffff" stroke="#004a7c" stroke-width="6"/>
    <circle cx="0" cy="0" r="16" fill="#0061a4"/>
    <path d="M0 -109 L-21 -46 L21 -46 Z" fill="#004a7c"/>
  </g>
</svg>
